<svg width="17" height="21" viewBox="0 0 17 21" fill="none" xmlns="http://www.w3.org/2000/svg">
<rect y="8.48901" width="12.0053" height="2.18975" rx="1" transform="rotate(-45 0 8.48901)" fill="white"/>
<path d="M7.66969 0.852255C7.27917 1.24278 7.27917 1.87594 7.66969 2.26647L14.7445 9.34128C15.135 9.73181 15.7682 9.7318 16.1587 9.34128L16.2929 9.20711C16.6834 8.81658 16.6834 8.18342 16.2929 7.79289L9.21808 0.71808C8.82756 0.327556 8.19439 0.327557 7.80387 0.718081L7.66969 0.852255Z" fill="white"/>
<path d="M8.5 0.5C7.94772 0.5 7.5 0.947715 7.5 1.5L7.5 19.5C7.5 20.0523 7.94771 20.5 8.5 20.5V20.5C9.05228 20.5 9.5 20.0523 9.5 19.5L9.5 1.5C9.5 0.947716 9.05229 0.5 8.5 0.5V0.5Z" fill="white"/>
</svg>
